<svg xmlns="http://www.w3.org/2000/svg" width="64" height="64"><defs><filter id="a" width="145.3%" height="141.4%" x="-22.7%" y="-20.7%" filterUnits="objectBoundingBox"><feGaussianBlur in="SourceGraphic" stdDeviation="2.19"/></filter><filter id="b" width="142.3%" height="138.2%" x="-21.2%" y="-19.1%" filterUnits="objectBoundingBox"><feGaussianBlur in="SourceGraphic" stdDeviation="2"/></filter><filter id="c" width="177.3%" height="246%" x="-38.7%" y="-73%" filterUnits="objectBoundingBox"><feGaussianBlur in="SourceGraphic" stdDeviation="2.19"/></filter></defs><g fill="none" fill-rule="evenodd"><circle cx="28" cy="28" r="28" fill="#0052E2"/><path stroke="#FFF" stroke-dasharray="2" d="M38.5 48.5C28.5 50 24 50 15 40.5"/><path fill="#363C4D" d="M13 16h13a8 8 0 018 8v15.762a8 8 0 01-8 8H13a8 8 0 01-8-8V24a8 8 0 018-8z" filter="url(#a)" opacity=".458" transform="translate(4)"/><path fill="#609CFF" d="M7.5.738h31a3 3 0 013 3v34.524a3 3 0 01-3 3h-31a3 3 0 01-3-3V3.738a3 3 0 013-3z"/><path stroke="#FFF" stroke-linecap="round" stroke-linejoin="round" stroke-width="2" d="M10.5 8h25m-25 6h25m-25 6h16"/><path fill="#363C4D" d="M28.083 1.499c.348.28.49.655.427 1.123l-4.05 26.953a1.11 1.11 0 01-.507.79.898.898 0 01-.87.052l-7.167-3.246-3.83 5.176a.9.9 0 01-.774.404.782.782 0 01-.348-.07c-.2-.082-.362-.22-.483-.413a1.18 1.18 0 01-.182-.64v-6.124L23.97 6.92 7.056 23.152.806 20.31c-.39-.164-.601-.486-.633-.965-.021-.468.148-.813.506-1.036L27.007 1.464a.916.916 0 011.076.035z" filter="url(#b)" opacity=".56" transform="rotate(10 -129.02 192.02)"/><path fill="#DEEDFE" d="M60.507 30.695c.278.32.35.692.213 1.118l-8.212 24.48a1.05 1.05 0 01-.603.654.85.85 0 01-.82-.094l-6.153-4.208-4.424 4.2a.853.853 0 01-.79.249.74.74 0 01-.313-.123.96.96 0 01-.382-.464c-.082-.2-.103-.41-.065-.628l1.008-5.713-2.64-2.728-5.363-3.68c-.337-.217-.481-.552-.432-1.004.058-.44.272-.735.643-.883L59.51 30.486a.868.868 0 01.998.21z"/><path fill="#FFF" d="M60.507 30.695c.278.32.35.692.213 1.118l-8.212 24.48a1.05 1.05 0 01-.603.654.85.85 0 01-.82-.094l-6.153-4.208-4.424 4.2a.853.853 0 01-.79.249.74.74 0 01-.313-.123.96.96 0 01-.382-.464c-.082-.2-.103-.41-.065-.628l1.008-5.713 15.81-15.089-18.45 12.361-5.363-3.68c-.337-.217-.481-.552-.432-1.004.058-.44.272-.735.643-.883L59.51 30.486a.868.868 0 01.998.21z"/><path fill="#363C4D" filter="url(#c)" opacity=".458" d="M2 5h17v9H2z" transform="translate(3 25)"/><path fill="#FFF" d="M3 25h21v12H3z"/><path fill="#F4F4F5" d="M24 25L3 37h21z"/><path fill="#DEEDFE" d="M3 25l21 12H3z"/></g></svg>