<svg height="64" width="64" xmlns="http://www.w3.org/2000/svg"><filter id="a" height="141.4%" width="145.3%" x="-22.7%" y="-20.7%"><feGaussianBlur in="SourceGraphic" stdDeviation="2.19"/></filter><filter id="b" height="133.3%" width="158%" x="-29%" y="-16.6%"><feGaussianBlur in="SourceGraphic" stdDeviation="2"/></filter><g fill="none" fill-rule="evenodd"><circle cx="30" cy="28" fill="#0052e2" r="28"/><path d="M13 16h13a8 8 0 018 8v15.762a8 8 0 01-8 8H13a8 8 0 01-8-8V24a8 8 0 018-8z" fill="#363c4d" filter="url(#a)" opacity=".458" transform="translate(27)"/><path d="M30.5.738h31a3 3 0 013 3v34.524a3 3 0 01-3 3h-31a3 3 0 01-3-3V3.738a3 3 0 013-3z" fill="#609cff"/><path d="M33.5 8h25m-25 6h25m-25 6h16" stroke="#fff" stroke-linecap="round" stroke-linejoin="round" stroke-width="2"/><g fill-rule="nonzero"><path d="M3.695 20.072v27.601L24.4 52.076V16.008zM17.55 38.54c-.875 1.168-2.016 1.753-3.424 1.753-1.372 0-2.49-.566-3.353-1.698s-1.296-2.606-1.296-4.424c0-1.92.438-3.472 1.316-4.657.877-1.185 2.04-1.779 3.486-1.779 1.367 0 2.473.566 3.316 1.702.844 1.135 1.266 2.63 1.266 4.488.002 1.908-.436 3.447-1.311 4.615zm-3.33-8.45c-.756 0-1.358.361-1.803 1.08-.445.72-.668 1.672-.668 2.858 0 1.202.223 2.153.668 2.852.445.7 1.029 1.049 1.75 1.049.744 0 1.335-.34 1.77-1.02.436-.68.655-1.624.655-2.831 0-1.259-.211-2.238-.635-2.939-.423-.699-1.002-1.048-1.736-1.048z" fill="#363c4d" filter="url(#b)" opacity=".35" transform="translate(5 7)"/><path d="M5.294 12.483v36.668L32.802 55V7.084l-27.508 5.4zM23.7 37.016c-1.162 1.551-2.678 2.329-4.548 2.329-1.823 0-3.307-.752-4.455-2.255-1.146-1.505-1.721-3.463-1.721-5.878 0-2.55.582-4.612 1.748-6.187s2.71-2.363 4.632-2.363c1.815 0 3.285.752 4.404 2.26 1.122 1.509 1.683 3.495 1.683 5.963.002 2.535-.58 4.58-1.743 6.131zm-4.42-11.224c-1.005 0-1.805.478-2.396 1.434s-.888 2.22-.888 3.795c0 1.599.297 2.862.888 3.79.59.93 1.366 1.393 2.325 1.393.988 0 1.772-.451 2.351-1.355.579-.903.87-2.157.87-3.761 0-1.672-.28-2.973-.843-3.903-.563-.929-1.331-1.393-2.307-1.393z" fill="#f4f4f5"/></g></g></svg>