<svg height="64" width="64" xmlns="http://www.w3.org/2000/svg"><filter id="a" height="150%" width="175%" x="-37.5%" y="-25%"><feGaussianBlur in="SourceGraphic" stdDeviation="2"/></filter><filter id="b" height="141.4%" width="145.3%" x="-22.7%" y="-20.7%"><feGaussianBlur in="SourceGraphic" stdDeviation="2.19"/></filter><g fill="none" fill-rule="evenodd"><circle cx="28" cy="28" fill="#0052e2" r="28"/><g transform="translate(33 27)"><path d="M18.126 4.67c0-1.061-.248-1.88-.744-2.456-.496-.577-1.251-.865-2.266-.865-1.06 0-2 .38-2.819 1.142-.818.76-1.505 1.914-2.058 3.459l-.242.622c-.646 1.8-1.453 3.142-2.422 4.03-.968.888-2.087 1.332-3.355 1.332a3.931 3.931 0 01-1.487-.294 4.753 4.753 0 01-1.384-.882c-.461-.392-.801-.796-1.02-1.21A2.777 2.777 0 010 8.232c0-.208.052-.37.156-.485.103-.115.26-.173.467-.173.138 0 .282.087.432.26s.294.444.432.813c.277.646.646 1.136 1.107 1.47.462.334 1.003.501 1.626.501.484 0 .923-.08 1.315-.242.392-.161.75-.392 1.072-.691.3-.323.623-.785.968-1.384.346-.6.715-1.338 1.107-2.214l.52-1.141c.737-1.638 1.602-2.872 2.594-3.702C12.787.415 13.917 0 15.186 0c1.43 0 2.502.398 3.217 1.193.714.796 1.072 1.955 1.072 3.477h-1.35z" fill="#f4f4f5"/><rect fill="#363c4d" filter="url(#a)" height="24" opacity=".558" rx="8" width="16" x="10" y="8"/><rect fill="#fff" height="28" rx="9" width="19" x="9" y="4"/><path d="M20.32 9.66v3.287c0 .46-.16.853-.484 1.176a1.601 1.601 0 01-1.176.484c-.46 0-.853-.162-1.176-.484A1.601 1.601 0 0117 12.947V9.66c0-.46.161-.853.484-1.176A1.601 1.601 0 0118.66 8c.462 0 .854.161 1.176.484.323.323.485.715.485 1.176z" fill="#deedfe"/></g><path d="M13 16h13a8 8 0 018 8v15.762a8 8 0 01-8 8H13a8 8 0 01-8-8V24a8 8 0 018-8z" fill="#363c4d" filter="url(#b)" opacity=".458" transform="translate(4)"/><path d="M7.5.738h31a3 3 0 013 3v34.524a3 3 0 01-3 3h-31a3 3 0 01-3-3V3.738a3 3 0 013-3z" fill="#609cff"/><path d="M10.5 8h25m-25 6h25m-25 6h16" stroke="#fff" stroke-linecap="round" stroke-linejoin="round" stroke-width="2"/></g></svg>