<svg height="64" width="64" xmlns="http://www.w3.org/2000/svg"><filter id="a" height="150.2%" width="200.4%" x="-50.2%" y="-25.1%"><feGaussianBlur in="SourceGraphic" stdDeviation="3.178"/></filter><filter id="b" height="141.4%" width="145.3%" x="-22.7%" y="-20.7%"><feGaussianBlur in="SourceGraphic" stdDeviation="2.19"/></filter><g fill="none" fill-rule="evenodd"><g transform="translate(-.267)"><circle cx="28" cy="28" fill="#0052e2" r="28"/><path d="M3.77 52a.765.765 0 01-.77-.76V14.76c0-.42.345-.76.77-.76h17.46c.425 0 .77.34.77.76v36.48c0 .42-.345.76-.77.76z" fill="#363c4d" filter="url(#a)" opacity=".511" transform="translate(33 4)"/><path d="M34.013 54c-.56 0-1.013-.447-1.013-1V5c0-.552.454-1 1.013-1h22.974C57.547 4 58 4.448 58 5v48c0 .553-.453 1-1.013 1z" fill="#fff"/><path d="M35 7h21v41H35z" fill="#deedfe"/><path d="M50.436 6h-9.872C40.253 6 40 5.776 40 5.5s.253-.5.564-.5h9.872c.311 0 .564.224.564.5s-.253.5-.564.5M47 50.5a1.5 1.5 0 11-3 0 1.5 1.5 0 013 0" fill="#e6e6e6"/></g><path d="M13 16h13a8 8 0 018 8v15.762a8 8 0 01-8 8H13a8 8 0 01-8-8V24a8 8 0 018-8z" fill="#363c4d" filter="url(#b)" opacity=".458" transform="translate(4)"/><path d="M7.5.738h31a3 3 0 013 3v34.524a3 3 0 01-3 3h-31a3 3 0 01-3-3V3.738a3 3 0 013-3z" fill="#609cff"/><path d="M10.5 8h25m-25 6h25m-25 6h16" stroke="#fff" stroke-linecap="round" stroke-linejoin="round" stroke-width="2"/></g></svg>